# xmcd
#
# Track frame offsets: 
#        150
#        7567
#        16826
#        31601
#        40899
#        50854
#        60394
#        69944
#        81024
#        89238
#        99693
#        111632
#        129174
#        139000
#        149801
#        161167
#        175046
#        189387
#        199853
#        208248
#        218092
#        233639
#        244189
#        253947
#
# Disc length: 3547 seconds
#
# Revision: 0
# Processed by: cddbd v1.5.2PL0 Copyright (c) Steve Scherf et al.
# Submitted via: ExactAudioCopyFreeDBPlugin 1.0
#
DISCID=560dd918
DTITLE=Various Artist - The Best Of King and Starday Bluegrass [CD4]
DYEAR=2010
DGENRE=Bluegrass
TTITLE0=Carl Story - Hiding Place
TTITLE1=Carl Story - Cabin In Glory
TTITLE2=Bill Clifton - Give Me Your Love
TTITLE3=Bill Clifton - Mid The Green Fields Of Virginia
TTITLE4=Vern and Ray and The Carroll County Boys - Cabin On A Mountain
TTITLE5=Vern and Ray and The Carroll County Boys - Carroll County Breakdow
TTITLE5=n
TTITLE6=The Lonesome Pine Fiddlers - I'm All Alone
TTITLE7=The Lonesome Pine Fiddlers - Why Do You Treat Me The Way You D
TTITLE7=o
TTITLE8=Red Allen - Trouble Round My Door
TTITLE9=Red Allen - Will The Circle Be Unbroken
TTITLE10=The Country Gentlemen - Silence Or Tears
TTITLE11=The Country Gentlemen - Down Where The Still Waters Flow
TTITLE12=Hylo Brown - Hills Of Georgia
TTITLE13=Hylo Brown - Sad Prison Song
TTITLE14=The Stoneman Family - That Pal Of Mine
TTITLE15=The Stoneman Family - Talking Fiddle Blues
TTITLE16=Larry Sparks - You Could Have Called
TTITLE17=Larry Sparks - Goodbye Little Darlin'
TTITLE18=Charlie Moore - Lorena Go Hom
TTITLE19=Charlie Moore - Your Letter
TTITLE20=II Generation - All The Good Times Are Passed And Gone
TTITLE21=II Generation - Silence Or Tears
TTITLE22=New Grass Revival - I Wish I Said (I Love You One More Time)
TTITLE23=New Grass Revival - Lonesome Fiddle Blues
EXTD=
EXTT0=
EXTT1=
EXTT2=
EXTT3=
EXTT4=
EXTT5=
EXTT6=
EXTT7=
EXTT8=
EXTT9=
EXTT10=
EXTT11=
EXTT12=
EXTT13=
EXTT14=
EXTT15=
EXTT16=
EXTT17=
EXTT18=
EXTT19=
EXTT20=
EXTT21=
EXTT22=
EXTT23=
PLAYORDER=
